<?xml version="1.0" encoding="utf-8"?>
<!-- Generator: Adobe Illustrator 27.2.0, SVG Export Plug-In . SVG Version: 6.00 Build 0)  -->
<svg version="1.1" id="Layer_1" xmlns="http://www.w3.org/2000/svg" xmlns:xlink="http://www.w3.org/1999/xlink" x="0px" y="0px"
	 viewBox="0 0 481 477" style="enable-background:new 0 0 481 477;" xml:space="preserve">
<style type="text/css">
	.st0{fill:#E5DFDA;}
	.st1{font-family:'Bruney';}
	.st2{font-size:310.275px;}
	.st3{opacity:0.61;}
</style>
<circle class="st0" cx="241" cy="239.5" r="238.5"/>
<text transform="matrix(0.9985 -5.498000e-02 5.498000e-02 0.9985 154.2227 345.2538)" class="st1 st2">S</text>
<g>
	<path d="M237.2,250.5c-12.5,3.5-15.3,6.2-18.8,18.8c-3.5-12.5-6.2-15.3-18.8-18.8c12.5-3.5,15.3-6.2,18.8-18.8
		C222,244.2,224.8,247,237.2,250.5z"/>
</g>
<g class="st3">
	<g>
		<path d="M127.9,76.3c0,1.9-0.1,3.9-0.4,5.8c-0.2,1.8-0.5,3.6-1.2,5.3c-0.4,1-0.9,2-1.8,2.8c-0.1,0.1-0.2,0.2-0.4,0.4
			c-0.2,0.1-0.4,0.3-0.6,0.4c-0.6,0.3-1.2,0.5-1.8,0.7c-1,0.3-2,0.3-2.8,0c-0.8-0.3-1.5-0.8-2.1-1.3c-0.3-0.3-0.5-0.6-0.8-0.9
			c-1-1.2-1.8-2.5-2.4-3.9c-1.6-3.3-2.8-6.9-3.7-10.6c-0.9-3.9-1.6-8.1-1.9-12.2c-0.3-3.9-0.3-7.8,0.4-11.9c0.1-0.7,0.3-1.4,0.5-2
			c0.2-0.5,0.3-0.7,0.6-0.9c0.2-0.1,0.4-0.2,0.8-0.3c0.2,0,0.5-0.1,0.8-0.2c0.3-0.1,0.5,0,0.6,0.1c0,0,0.1,0.1,0.1,0.2
			c0.1,0.3,0.2,0.5,0.3,0.8c0,0.1,0.1,0.1,0.1,0.2c0.1,0.1,0,0.2-0.1,0.3c0,0-0.1,0-0.1,0.1c-0.4,0.1-0.7,0.1-1,0.1
			c-0.2,0.2-0.1,0.4-0.2,0.6c-0.4,3.2-0.5,6.4-0.4,9.5c0.1,2,0.2,4,0.4,5.8c0.3,2.6,0.7,5.3,1.2,7.9c0.5,2.6,1.3,5.1,2.1,7.5
			c0.6,1.9,1.4,3.7,2.3,5.4c0.5,0.9,1.1,1.8,1.7,2.6c0.2,0.3,0.5,0.6,0.8,0.9c0.7,0.7,1.5,1.2,2.6,1.4c0.6,0.1,1.1,0,1.5-0.3
			c0.1-0.1,0.3-0.2,0.4-0.4c0.5-0.6,0.9-1.3,1.2-1.9c0.6-1.3,0.9-2.7,1.1-4.1c0.5-2.8,0.6-5.6,0.6-8.4c0.1-0.4,0-0.9,0.1-1.4
			c0-0.3-0.1-0.6-0.2-0.9c-1.8-2.7-2.9-5.6-3.2-8.9c0-1,0-2,0.2-3c0.1-0.4,0.2-0.8,0.5-1.2c0.1-0.2,0.2-0.3,0.4-0.4
			c0.1-0.1,0.2-0.1,0.4-0.2c0.5-0.1,0.8-0.2,1.4-0.3c0.4-0.1,0.6,0.1,0.8,0.3c0,0.1,0.1,0.1,0.1,0.2c0.1,0.2,0.2,0.4,0.3,0.7
			c0.3,1.1,0.4,2.2,0.5,3.4c0.2,2.1,0.4,4.3,0.5,6.4c0,0.5,0,0.9,0,1.3c0,0.4,0.1,0.7,0.3,1c0.6,0.9,1.3,1.6,2,2.4
			c1.1,1,2.2,2.1,3.6,2.7c1.4,0.7,2.9,1.2,4.6,1.2c0.9,0,1.6-0.3,2.3-0.7c0.2-0.1,0.4-0.3,0.5-0.4c1.5-1.2,2.5-2.6,3.3-4.2
			c0.3-0.6,0.5-1.2,0.8-1.8c1.1-2.7,1.6-5.4,1.8-8.2c0.4-4.2,0.1-8.3-0.7-12.3c-0.5-2.4-1.1-4.8-1.8-7.2c-0.4-1.5-0.9-2.9-1.4-4.4
			c-0.5-1.5-1.1-3.1-1.8-4.6c-0.1-0.3-0.2-0.4-0.3-0.7c-0.8-1.5-1.6-3-2.9-4.3c-0.3-0.2-0.6-0.5-0.9-0.8c-0.1-0.1-0.2-0.1-0.3-0.1
			s-0.1,0.2-0.2,0.3c0,0.1,0,0.2,0.1,0.3c0,0.1,0.1,0.2,0.2,0.2c0.1,0,0.2,0,0.3,0.1c0.1,0,0.1,0,0.1,0.1c0,0,0,0,0,0.1
			c0,0.1-0.1,0.1-0.1,0.2c-0.1,0-0.1,0-0.1,0c-0.5,0-1.1,0.1-1.6,0c-0.4-0.1-0.8-0.3-0.9-0.5c-0.2-0.3-0.1-0.7,0.1-1.2
			c0.1-0.2,0.3-0.4,0.5-0.5c0.2-0.1,0.3-0.1,0.5-0.1c1,0,2-0.2,2.9-0.1c0.6,0.1,1.2,0.4,1.7,0.8c0.7,0.6,1.2,1.3,1.7,2
			c0.4,0.7,0.9,1.5,1.3,2.3c0.3,0.7,0.6,1.3,0.9,2c0.6,1.4,1.1,3,1.5,4.5c0.8,2.7,1.5,5.5,2,8.4c0.5,2.8,1.1,5.7,1.2,8.5
			c0.2,3.4,0.1,6.9-0.5,10.3c-0.5,2.7-1.3,5.2-2.7,7.7c-0.7,1.1-1.6,2.2-2.7,3c-0.2,0.1-0.5,0.4-0.8,0.5c-0.2,0.1-0.5,0.3-0.9,0.4
			c-1.7,0.6-3.3,1.1-5.1,1c-0.7,0-1.4-0.1-2-0.3c-2-0.5-3.8-1.5-5.2-2.8c-0.4-0.3-0.7-0.6-1.1-1C127.9,76,127.9,76.1,127.9,76.3z
			 M125.9,67.7c-0.1-1.7-0.3-3.4-0.7-5C125.1,64.5,125.4,66.1,125.9,67.7z"/>
		<path d="M157.3,51.3c0.3,0.2,0.6,0.3,1,0.2c0.3-0.1,0.6-0.2,0.8-0.3c0.4-0.2,0.9-0.4,1.3-0.7c1.2-0.8,2.3-1.8,3.3-2.9
			c2.2-2.3,4.3-4.7,6.1-7.3c0.3-0.4,0.5-0.7,0.7-1.1c0.1-0.1,0.2-0.2,0.4-0.3c0.2-0.1,0.6-0.1,0.7,0.1c0,0,0,0,0,0c0,0,0,0.1,0,0.2
			c-0.1,0.2-0.2,0.2-0.3,0.4c-1.6,2.6-3.5,5-5.5,7.4c-0.9,1.1-1.9,2.1-3,3.1c-0.6,0.5-1.3,1-2,1.4c-0.2,0.1-0.4,0.2-0.6,0.3
			c-0.3,0.1-0.6,0.2-0.9,0.3c-1.2,0.2-2.3,0.2-3.3-0.1c-0.8-0.2-1.4-0.7-1.7-1.4c-0.1-0.2-0.1-0.3-0.1-0.5c-0.8-2.5-0.6-5.1,0.8-7.8
			c0.6-1.1,1.3-2.1,2.5-2.9c0.2-0.1,0.3-0.2,0.4-0.2c0.3-0.1,0.7-0.2,1.2-0.2c0.5,0.1,1.1,0.1,1.6,0.2c0.4,0,0.7,0.2,0.8,0.5
			c0,0.1,0,0.2,0,0.3c0.1,1.6-0.4,3.2-1.6,4.7c-0.4,0.4-0.9,0.8-1.3,1c-0.5,0.2-1.1,0.3-1.7,0.3c-0.3,0-0.5,0-0.6,0.1
			c-0.2,0.1-0.2,0.2-0.3,0.6c0,1,0,1.9,0.1,2.9c0.1,0.3,0.1,0.6,0.2,0.9C156.7,50.7,157,51.1,157.3,51.3z M158.7,44
			c0.6-1,0.9-2,0.8-3c0-0.2,0.1-0.3,0-0.4c0,0-0.1-0.1-0.1-0.1c-0.1,0-0.1,0-0.1,0c-0.2,0.1-0.3,0.3-0.4,0.4
			c-1.3,1.2-1.9,2.6-2.3,4.1c-0.1,0.2-0.1,0.3,0,0.4c0,0.1,0.2,0.1,0.5,0c0.1,0,0.1,0,0.2-0.1C158,44.9,158.4,44.5,158.7,44z"/>
		<path d="M174.7,33.4c0.3-0.5,0.7-1,1.2-1.4c0.4-0.4,0.9-0.7,1.4-0.8c0.3-0.1,0.7-0.2,1-0.1c0.3,0,0.7-0.1,1,0
			c0.8,0,1.4,0.2,1.8,0.7c0.4,0.4,0.6,0.9,0.7,1.4c0,0.2,0.1,0.3,0.1,0.4c0.1,0.8,0.2,1.6,0.2,2.5c0,0.1-0.1,0.3,0,0.4
			c0,0.1,0.1,0.2,0.3,0.2c0.5-0.1,0.7-0.2,1.2-0.3c0.9-0.2,1.8-0.5,2.6-0.9c0.5-0.3,1-0.6,1.3-1.1c0-0.1,0.3-0.2,0.4-0.3
			c0.2-0.1,0.5-0.1,0.6,0c0,0,0,0.1,0,0.1c0,0,0,0.1,0,0.2c-0.1,0.4-0.4,0.8-0.8,1c-0.5,0.4-1.2,0.6-1.7,0.9
			c-0.6,0.2-1.3,0.4-1.9,0.6c-0.6,0.2-1.3,0.3-1.9,0.5c-0.3,0.1-0.3,0.2-0.4,0.4c-0.1,0.5-0.1,1-0.2,1.5c-0.3,1.9-0.9,3.7-1.7,5.5
			c-0.5,1-1.2,1.9-2,2.8c-0.6,0.6-1.2,1.1-2.1,1.4c-0.4,0.1-0.8,0.2-1.3,0.3c-0.3,0.1-0.7,0.1-1.1,0.1c-1.9,0.3-3.4-0.8-3.9-1.9
			c-0.1-0.2-0.1-0.3-0.2-0.5c-0.8-2.1-0.4-4.2,1-6.3c0.1-0.2,0.3-0.4,0.2-0.6c0-2.5,0.4-5,0.7-7.4c0.5-3.3,1.2-6.6,2.2-9.9
			c0.5-1.6,1-3.1,1.7-4.7c0.3-0.5,0.5-1.1,0.9-1.6c0.1-0.2,0.3-0.4,0.4-0.6c0.1-0.1,0.2-0.2,0.4-0.2c0.1,0,0.2-0.1,0.3,0
			c0.4,0.1,0.9,0.2,1.2,0.2c0.2,0,0.4,0.1,0.4,0.2c0,0.1,0,0.2-0.1,0.3c-0.4,0.6-0.6,1.2-1,1.8c-0.3,0.5-0.6,1.1-0.8,1.7
			c-1.6,4.4-2.7,8.8-3.4,13.2c-0.1,0.6-0.2,1.2-0.3,1.8c-0.1,0.2-0.1,0.4-0.1,0.6c0,0,0.1,0,0.1,0C174,34.5,174.3,33.9,174.7,33.4z
			 M173.5,48.4c0.4,0.1,0.7,0.1,1.1,0c0.2-0.1,0.3-0.1,0.5-0.2c0.4-0.2,0.8-0.5,1.1-0.8c0.5-0.6,1-1.2,1.3-1.8
			c1.3-2.4,2-4.9,2.3-7.5c0-0.1,0-0.2,0-0.2c0-0.1-0.2-0.1-0.4-0.1c-0.9,0.1-1.9,0.2-2.7,0.4c-0.5,0.1-0.9,0.1-1.4,0.3
			c-0.3,0.1-0.6,0.3-0.9,0.4c-0.3,0.1-0.4,0.3-0.5,0.5c-0.1,0.6-0.3,1.1-0.5,1.7c-0.1,0.4-0.2,0.5-0.4,0.6c-0.1,0-0.3,0.1-0.5,0.1
			c-0.1,0-0.2,0-0.2,0c-0.2,0-0.3,0.1-0.4,0.1c-0.2,0.1-0.2,0.1-0.3,0.4c-0.4,1.3-0.5,2.6,0,3.9c0.1,0.2,0.1,0.3,0.2,0.5
			C171.8,47.4,172.5,48.1,173.5,48.4z M176.2,37.6c1-0.1,2.1-0.3,3.2-0.4c0,0,0.1,0,0.1,0c0.2-0.1,0.3-0.2,0.3-0.3
			c0-0.3,0-0.6,0-0.9c0-0.9-0.1-1.9-0.3-2.7c0-0.1-0.1-0.2-0.1-0.3c-0.1-0.3-0.2-0.5-0.4-0.8c-0.2-0.3-0.4-0.4-0.6-0.3
			c-0.1,0-0.3,0.2-0.5,0.4c-0.2,0.2-0.5,0.4-0.7,0.7c-1.3,1.5-2.2,3.2-2.9,5c-0.1,0,0,0.1-0.1,0.2C175,37.8,175.6,37.7,176.2,37.6z"
			/>
		<path d="M214.3,25.5c0.5-1.2,1-2.5,1.6-3.6c0.6-1.3,1.4-2.7,2.2-4c0.4-0.7,0.8-1.4,1.3-2.1c1.4-2.1,3-4.2,4.7-6.2
			c1-1.1,2.1-2.2,3.3-3.2c2.1-1.7,4.4-3.2,7.3-4.1c1.2-0.4,2.5-0.7,3.8-0.7c0.4,0,0.8,0,1.2,0c0.7,0.1,1.5,0.2,2.2,0.5
			c0.3,0.2,0.8,0.4,1.2,0.6c1.4,0.6,2.3,1.5,2.8,2.5c0.8,1.4,1.1,2.8,1.2,4.2c0,0.5,0.1,1.1,0.1,1.6c-0.1,1.8-0.5,3.5-1,5.2
			c-1,3.5-2.7,6.9-4.7,10c-1.6,2.5-3.6,5-5.6,7.4c-1.3,1.6-2.8,3.1-4.2,4.6c-1.6,1.6-3.2,3.2-5,4.6c-1.4,1.1-2.8,2.2-4.2,3.2
			c-2,1.4-4.1,2.6-6.3,3.7c-1.3,0.6-2.6,1.1-4.1,1.3c-0.1,0-0.2,0-0.3,0c-1.6,0.2-3.1,0-4.6-0.4c-1.2-0.4-2.1-1.3-2.3-2.4
			c0-0.1-0.1-0.3,0-0.5c-0.1-1.1,0.2-2.2,0.7-3.1c0.6-1.3,1.4-2.4,2.5-3.5c0.4-0.4,0.6-0.9,0.5-1.4c-0.1-0.7,0.1-1.5,0.1-2.2
			c0.3-3.2,1-6.4,1.8-9.6c1-3.7,2.1-7.5,3.5-11.2c1.1-2.9,2.2-5.8,3.7-8.6c0.4-0.7,0.8-1.3,1.2-2c0.1-0.1,0.2-0.3,0.3-0.4
			c0.2-0.3,0.4-0.5,0.6-0.5c0.2,0,0.4,0,0.8,0.1c0.3,0.1,0.7,0.2,1,0.3c0.2,0.1,0.3,0.1,0.4,0.3c0,0-0.1,0.2-0.1,0.3
			c-0.1,0.1-0.2,0.3-0.3,0.4c-0.3,0.5-0.5,0.9-0.6,1.4c-0.1,0.1-0.1,0.3-0.1,0.4c0,0.1,0.1,0.1,0.1,0.2c0.1,0,0.1,0.1,0.1,0.1
			c0,0-0.1,0.1-0.1,0.1c-0.1,0-0.1,0-0.1,0c-0.1,0-0.1,0-0.2,0c-0.2,0-0.3,0.2-0.4,0.3c-1.1,2.2-2,4.4-2.9,6.6
			c-1.3,3.3-2.5,6.7-3.5,10.1c-0.2,0.7-0.5,1.4-0.6,2.1c0,0.2-0.1,0.3-0.1,0.4c0,0,0.1,0,0.1,0C213.6,27.3,214,26.4,214.3,25.5z
			 M212.5,37.5c0.8-0.5,1.7-0.9,2.6-1.2c0.3-0.1,0.7-0.2,1-0.2c0.5-0.1,0.9-0.1,1.4,0c0.2,0,0.4,0.1,0.4,0.2c0,0.1-0.1,0.3-0.2,0.4
			c-0.3,0.2-0.6,0.3-0.8,0.5c-1.8,1-3.5,2-5,3.2c-1.3,1.1-2.5,2.3-3.4,3.6c-0.5,0.7-0.9,1.4-1.1,2.1c-0.2,0.6-0.3,1.3-0.2,2
			c0,0.2,0.1,0.5,0.2,0.7c0.4,1,1.7,1.7,2.8,1.5c0.8-0.1,1.6-0.2,2.3-0.5c1.5-0.5,2.9-1.1,4.2-1.9c1.7-0.9,3.3-2,4.8-3.1
			c1.6-1.2,3.2-2.6,4.7-3.9c1.4-1.2,2.7-2.6,4-3.9c1.5-1.6,2.9-3.2,4.2-4.9c1.9-2.4,3.7-4.8,5.2-7.3c1.7-2.8,3.3-5.9,4.2-8.9
			c0.6-2,1.1-4,1.1-6.1c0-0.3,0-0.5,0-0.8c0-1.1-0.2-2.2-0.5-3.2c-0.3-0.8-0.8-1.6-1.4-2.3c-0.4-0.5-1-0.7-1.7-0.8
			c-0.3,0-0.6,0-0.9,0c-0.9,0-1.7,0.1-2.6,0.3c-2,0.5-3.8,1.3-5.4,2.3c-1.6,1-3.1,2.1-4.4,3.3c-1.6,1.4-3.1,3-4.4,4.6
			c-1.5,1.8-2.8,3.7-3.9,5.6c-1.6,2.6-2.9,5.4-4,8.1c-1.4,3.4-2.5,6.8-3.5,10.3c0,0.2-0.1,0.3,0,0.5
			C212.2,37.7,212.4,37.6,212.5,37.5z"/>
		<path d="M248.4,34.1c0.2,0.3,0.4,0.6,0.8,0.6c0.3,0.1,0.6,0.1,0.9,0.1c0.5,0,1,0,1.5-0.1c1.4-0.2,2.8-0.7,4.2-1.2
			c2.9-1.1,5.8-2.4,8.6-4c0.4-0.2,0.7-0.5,1.1-0.7c0.1-0.1,0.3-0.1,0.4-0.1c0.2,0,0.5,0.2,0.6,0.4c0,0,0,0,0,0c0,0.1,0,0.1-0.1,0.2
			c-0.2,0.1-0.2,0.2-0.4,0.3c-2.5,1.7-5.3,3.1-8.1,4.3c-1.3,0.6-2.6,1.1-4,1.5c-0.8,0.2-1.6,0.3-2.4,0.4c-0.2,0-0.4,0-0.6,0
			c-0.3,0-0.6-0.1-0.9-0.1c-1.2-0.3-2.1-0.9-2.9-1.6c-0.6-0.6-0.9-1.3-0.9-2c0-0.2,0.1-0.3,0.1-0.5c0.4-2.7,1.7-5,4.1-6.8
			c1-0.8,2.1-1.4,3.4-1.5c0.2,0,0.3,0,0.5,0c0.4,0,0.7,0.1,1.1,0.4c0.4,0.3,0.9,0.6,1.4,0.9c0.4,0.2,0.5,0.5,0.5,0.8
			c0,0.1-0.1,0.1-0.1,0.2c-0.6,1.6-1.8,2.8-3.4,3.6c-0.6,0.2-1.1,0.3-1.6,0.3c-0.5,0-1.1-0.2-1.6-0.5c-0.3-0.1-0.5-0.2-0.6-0.2
			c-0.2,0-0.2,0.1-0.5,0.5c-0.5,0.9-0.9,1.8-1.1,2.7c-0.1,0.3-0.1,0.6-0.2,0.9C248.2,33.3,248.2,33.8,248.4,34.1z M252.8,28
			c1-0.6,1.6-1.5,2.1-2.4c0.1-0.1,0.2-0.3,0.2-0.4c0-0.1-0.1-0.1-0.1-0.1c-0.1-0.1-0.1-0.1-0.1-0.1c-0.2,0-0.4,0.1-0.5,0.2
			c-1.6,0.5-2.8,1.5-3.8,2.7c-0.1,0.1-0.2,0.2-0.2,0.3c0,0.1,0.2,0.2,0.5,0.3c0.1,0,0.1,0,0.2,0C251.8,28.5,252.3,28.3,252.8,28z"/>
		<path d="M266,26.2c0.1-0.4,0.3-0.8,0.6-1.1c0.1-0.2,0.3-0.3,0.4-0.3c0.1,0,0.2,0,0.4,0.2c0.3,0.2,0.7,0.4,1,0.6
			c0.2,0.1,0.3,0.2,0.3,0.3c0,0,0,0.1-0.1,0.2c-0.8,1.6-1.2,3.2-1.4,4.9c-0.1,0.5-0.1,1.2-0.2,1.7c-0.1,0.8-0.1,1.7,0,2.5
			c0,0.3,0.1,0.4,0.2,0.4c0.1,0,0.2,0,0.4-0.2c0.9-0.4,1.7-0.9,2.4-1.5c1.4-1.1,2.7-2.3,3.8-3.6c0.1-0.1,0.2-0.3,0.2-0.4
			c0-0.1,0-0.3-0.2-0.4c-0.5-0.8-0.7-1.7-0.6-2.6c0-0.1,0-0.1,0-0.2c0.2-1.4,1-2.7,2.3-3.7c0.5-0.3,1.1-0.6,1.7-0.7
			c0.3-0.1,0.5-0.1,0.8,0c0.2,0,0.5,0.1,0.7,0.3c0.2,0.2,0.4,0.3,0.6,0.5c0.7,0.5,0.8,1,0.7,1.6c0,0.1,0,0.1,0,0.2
			c-0.2,0.6-0.6,1.2-1,1.7c-0.9,1.3-2,2.4-3,3.6c-0.2,0.2-0.2,0.3-0.2,0.4c0,0.1,0.1,0.3,0.5,0.4c0.9,0.4,1.8,0.7,2.7,0.8
			c1.1,0.2,2.3,0.3,3.5,0.1c0.4,0,0.8-0.1,1.2-0.2c0.2-0.1,0.4,0,0.5,0c0.2,0,0.4,0.1,0.6,0.3c0,0.1,0.1,0.2,0.1,0.2
			c0,0-0.1,0-0.1,0.1c-0.1,0-0.2,0.1-0.3,0.1c-1.6,0.4-3.2,0.6-4.9,0.3c-1.4-0.3-2.6-0.6-3.7-1.4c-0.2-0.1-0.3-0.2-0.4-0.2
			c-0.1,0-0.2,0.1-0.3,0.2c-1.3,1.4-2.7,2.8-4.2,4c-0.5,0.4-1.1,0.8-1.8,1.2c-0.4,0.2-0.8,0.4-1.1,0.3c-0.3,0-0.6-0.2-0.9-0.4
			c-0.2-0.1-0.3-0.2-0.6-0.3c-0.7-0.3-1-0.9-1.1-1.5c-0.2-0.8-0.2-1.6-0.2-2.4c0-0.6,0-1.3,0.1-1.9c0.1-0.5,0.1-0.8,0.2-1.3
			C265.5,28.2,265.7,27.1,266,26.2z M275,29c0.4-0.4,0.8-0.9,1.1-1.4c0.8-0.9,1.5-2,2.1-3.1c0.1-0.2,0.1-0.4,0.2-0.6
			c0-0.1,0-0.2-0.1-0.2c-0.1,0-0.1,0-0.1,0c-0.4,0.1-0.7,0.3-1,0.5c-1.3,0.9-1.9,2-2.2,3.4c0,0.1,0,0.2-0.1,0.3c-0.1,0.3,0,0.7,0,1
			C275,29,275,29,275,29z"/>
		<path d="M283.3,38.5c0.1,0.4,0.3,0.6,0.7,0.8c0.3,0.1,0.6,0.2,0.9,0.2c0.5,0.1,1,0.2,1.5,0.2c1.4,0,2.9-0.2,4.3-0.5
			c3.1-0.6,6.2-1.4,9.2-2.5c0.4-0.1,0.8-0.3,1.2-0.5c0.1-0.1,0.3-0.1,0.5,0c0.2,0.1,0.5,0.3,0.6,0.5c0,0,0,0,0,0c0,0,0,0.1-0.1,0.2
			c-0.2,0.1-0.3,0.1-0.4,0.2c-2.8,1.3-5.8,2.2-8.8,2.9c-1.4,0.4-2.7,0.7-4.2,0.8c-0.8,0.1-1.6,0.1-2.5,0c-0.2-0.1-0.4,0-0.6-0.1
			c-0.3-0.1-0.6-0.2-0.8-0.3c-1.1-0.5-1.9-1.2-2.6-2c-0.5-0.7-0.7-1.4-0.5-2.1c0-0.2,0.1-0.3,0.2-0.5c0.8-2.6,2.6-4.6,5.2-6.1
			c1.1-0.6,2.3-1,3.7-0.9c0.2,0,0.3,0,0.5,0.1c0.4,0.1,0.7,0.3,1,0.6c0.4,0.3,0.8,0.7,1.2,1.1c0.3,0.3,0.4,0.6,0.3,0.9
			c0,0.1-0.1,0.1-0.1,0.2c-0.9,1.4-2.2,2.5-4,3c-0.6,0.1-1.2,0.1-1.6,0c-0.5-0.1-1-0.4-1.5-0.8c-0.3-0.2-0.4-0.3-0.5-0.3
			c-0.2,0-0.3,0.1-0.6,0.4c-0.6,0.8-1.2,1.6-1.6,2.5c-0.1,0.3-0.2,0.6-0.3,0.9C283.3,37.6,283.2,38.1,283.3,38.5z M288.8,33.2
			c1.1-0.5,1.9-1.2,2.4-2c0.1-0.1,0.3-0.3,0.3-0.3c0,0,0-0.1,0-0.1c0-0.1-0.1-0.1-0.1-0.1c-0.2,0-0.4,0.1-0.5,0.1
			c-1.7,0.3-3,1.1-4.3,2c-0.2,0.1-0.2,0.2-0.3,0.3c0,0.1,0.1,0.2,0.4,0.4c0.1,0,0.1,0,0.2,0C287.6,33.5,288.2,33.4,288.8,33.2z"/>
		<path d="M299.7,38.7c1.6-2.6,3.7-5,5.8-7.3c2.4-2.7,5.2-5.2,8.2-7.5c1.7-1.4,3.6-2.6,5.4-3.8c0.3-0.1,0.6-0.4,1-0.5
			c0.2-0.1,0.3-0.1,0.5-0.1c0.1,0,0.2,0.1,0.3,0.2c0.3,0.3,0.5,0.5,0.7,0.8c0.2,0.2,0.2,0.3,0.2,0.4c0,0-0.1,0.1-0.2,0.2
			c-0.2,0.2-0.5,0.4-0.8,0.6c-3.2,2.3-6.4,4.7-9.2,7.3c-4,3.6-7.6,7.6-10.4,11.9c-0.8,1.1-1.4,2.3-1.8,3.6c-0.1,0.3-0.1,0.4-0.2,0.7
			c-0.1,0.5-0.2,1,0,1.5c0.1,0.3,0.1,0.5,0.4,0.6c0.1,0,0.3,0,0.5,0c0.7,0,1.3-0.1,2-0.2c0.9-0.2,1.8-0.5,2.6-0.9
			c2.6-1,5.3-2.2,8-3.4c1.4-0.6,2.8-1.1,4.1-1.8c0.2-0.1,0.3-0.1,0.5,0c0,0,0.1,0,0.1,0c0.3,0.2,0.4,0.3,0.4,0.4
			c0,0-0.1,0.1-0.3,0.2c-1.2,0.7-2.5,1.2-3.7,1.7c-2.6,1.2-5.2,2.4-7.8,3.5c-1.1,0.5-2.2,0.9-3.4,1.2c-0.3,0.1-0.7,0.1-1,0.1
			c-0.4,0-0.9,0-1.3-0.1c-0.3-0.1-0.5-0.2-0.7-0.3c-0.2-0.1-0.5-0.2-0.7-0.4c-0.7-0.4-1.2-1.1-1.3-1.8c-0.1-0.8,0-1.6,0.2-2.4
			c0-0.1,0.1-0.2,0.1-0.3C298,41.5,298.8,40,299.7,38.7z"/>
		<path d="M323.6,46c-0.7,0.8-1.6,1.5-2.5,2.1c-0.8,0.5-1.8,0.8-2.7,1.1c-0.6,0.1-1.3,0.2-2-0.1c-0.2-0.1-0.4-0.2-0.6-0.4
			c-0.3-0.3-0.6-0.6-1-1c-0.2-0.2-0.3-0.3-0.4-0.6c-0.3-0.6-0.3-1.3-0.1-1.9c0.1-0.2,0.1-0.3,0.2-0.5c0.7-1.8,1.9-3.2,3.6-4.3
			c0.2-0.1,0.2-0.2,0.2-0.3c0.1-0.1,0.1-0.2,0-0.4c-0.1-0.7,0-1.2,0.2-1.7c0.7-1.8,3-2.5,4.9-2c0.2,0,0.4,0.1,0.6,0.2
			c0.4,0.1,0.7,0.4,0.9,0.6c0.5,0.5,0.9,1,1.2,1.5c0.4,0.5,0.5,1.1,0.5,1.7c0,0.7-0.1,1.4-0.4,2.1c-0.1,0.3-0.3,0.7-0.5,1
			c-0.3,0.5-0.6,1.1-0.9,1.5c0,0.1,0,0.1-0.1,0.1c-0.1,0.1,0,0.2,0.2,0.3c0.2,0.1,0.3,0.1,0.6,0.2c1.5,0.7,3,1.2,4.6,1.3
			c0.2,0,0.4,0,0.5,0c0.1,0,0.3-0.1,0.4,0c0.1,0,0,0.1,0.1,0.1c0.3,0.2,0.4,0.4,0.5,0.6c0,0.1,0.1,0.1,0,0.2c0,0.1-0.1,0.1-0.2,0.1
			c-0.1,0-0.3,0-0.4,0c-0.7,0-1.5-0.1-2.3-0.3c-1.2-0.3-2.4-0.6-3.4-1c-0.4-0.2-0.5-0.2-0.9-0.4C324,45.6,324,45.6,323.6,46z
			 M316.1,47.3c0,0.3,0,0.4,0.1,0.4c0.1,0,0.2,0,0.4,0c0.7,0.1,1.3-0.1,1.9-0.4c1.4-0.7,2.5-1.5,3.4-2.6c0.1-0.1,0.2-0.1,0.2-0.2
			c0-0.1-0.1-0.2-0.3-0.4c-0.7-0.4-1.2-1-1.8-1.6c-0.1-0.2-0.2-0.3-0.3-0.3c-0.2-0.1-0.3,0-0.5,0.2c-1.2,1-2.2,2.2-2.8,3.6
			C316.2,46.5,316,46.9,316.1,47.3z M325,38.3c0-0.3-0.1-0.5-0.4-0.6c-0.1,0-0.2-0.1-0.3-0.1c-0.6-0.2-1.2-0.2-1.7-0.1
			c-1.4,0.2-2.3,0.8-2.7,1.8c-0.1,0.1-0.1,0.3-0.1,0.4c-0.1,0.3-0.1,0.6,0.2,0.8c0.2,0.1,0.3,0.3,0.5,0.5c0.2,0.2,0.3,0.4,0.3,0.5
			c0,0.1-0.2,0.2-0.3,0.3c-0.1,0.1-0.2,0.2-0.2,0.3s0.1,0.2,0.2,0.4c0.6,0.5,1.2,0.9,1.8,1.2c0.1,0,0.2,0.1,0.3,0.1
			c0.2,0.1,0.2,0,0.4-0.2c0.5-0.7,1-1.4,1.3-2.1c0.2-0.5,0.3-0.8,0.6-1.3C325.1,39.5,325.2,38.9,325,38.3z"/>
		<path d="M338,45.9c1.1-0.2,2.3-0.3,3.6-0.1c0.3,0.1,0.4,0.2,0.6,0.3c0.3,0.1,0.5,0.3,0.7,0.6c0.3,0.4,0.5,0.6,0.8,0.9
			c0.4,0.5,0.6,1.1,0.4,1.7c-0.1,0.3-0.2,0.6-0.3,0.9c-0.3,0.5-0.7,1-1,1.4c-0.2,0.2-0.4,0.5-0.6,0.6c-0.1,0.1-0.1,0.1-0.2,0.2
			c-0.1,0.1,0,0.2,0.2,0.4c0.7,0.4,1.1,0.6,1.8,1c0.9,0.5,1.7,1,2.7,1.3c0.5,0.2,1.1,0.3,1.5,0.1c0.1-0.1,0.2,0,0.3,0
			c0.1,0,0.1,0.1,0.2,0.2c0.1,0,0.1,0.1,0.2,0.2c0.2,0.2,0.3,0.4,0.2,0.6c-0.1,0.1-0.2,0.2-0.4,0.3c-0.4,0.1-0.8,0-1.2-0.1
			c-0.9-0.3-1.9-0.7-2.8-1.1c-1.2-0.7-1.9-1-3.1-1.7c-0.5-0.3-0.5-0.3-0.9,0c-1.6,1.4-3.3,2.5-5.3,3.2c-1,0.3-2,0.6-3.1,0.5
			c-0.4-0.1-0.7-0.1-1-0.3c-0.3-0.2-0.6-0.5-0.9-0.7c-0.2-0.2-0.4-0.5-0.7-0.8c-0.7-0.8-0.9-1.7-0.6-2.5c0-0.2,0.1-0.3,0.2-0.5
			c0.2-0.4,0.4-0.7,0.7-0.9c2-1.8,4.4-2.1,7.4-1.1c0.7,0.2,1.4,0.5,2.1,0.8c0.2,0.1,0.4,0.2,0.6,0c0.8-0.8,1.7-1.5,2.3-2.5
			c0.1-0.2,0.2-0.4,0.3-0.6c0.1-0.3,0.1-0.5-0.1-0.6c-0.1-0.1-0.2-0.1-0.4-0.1c-0.7-0.1-1.3-0.2-2-0.1c-2.3,0.2-4.4,0.9-6.3,1.7
			c-1.9,0.8-3.7,1.9-5.4,3.1c-0.9,0.6-1.5,1.3-2.3,2c-2.1,2-4.2,4-6.2,6c-1.5,1.5-2.9,3.1-4.4,4.6c-0.9,0.9-1.8,1.9-2.8,2.9
			c-0.3,0.4-0.4,0.5-0.7,0.4c-0.1,0-0.2-0.2-0.5-0.3c-0.2-0.1-0.3-0.2-0.5-0.3c-0.2-0.2-0.2-0.3-0.2-0.4c0-0.1,0-0.1,0.1-0.2
			c0.2-0.3,0.4-0.5,0.5-0.7c0.9-1.1,1.9-2.1,2.8-3.1c1.4-1.5,2.9-3,4.3-4.5c1-1,2-2,3-3c2.1-2.2,4.3-4.3,6.5-6.4
			c1.2-1.2,2.6-2.3,3.8-3.5c0.9-0.8,1.7-1.7,2.7-2.4c0.3-0.2,0.5-0.4,0.7-0.3c0.2,0.1,0.3,0.3,0.5,0.5c0.2,0.2,0.3,0.4,0.4,0.6
			c0.2,0.3,0.3,0.4,0.2,0.5c0,0-0.1,0.1-0.2,0.2c-0.8,0.6-1.6,1.3-2.3,2c-0.3,0.3-0.7,0.6-1,0.9C334.8,47,336.3,46.3,338,45.9z
			 M330.3,54.8c0,0.4,0.2,0.6,0.5,0.7c0.1,0,0.1,0,0.2,0.1c0.8,0.3,1.5,0.1,2.2,0c0.9-0.3,1.8-0.6,2.6-1.1c1-0.6,2.1-1.3,3-2.1
			c0.1-0.1,0.1-0.2,0.2-0.2c0.1-0.1,0-0.2-0.4-0.4c-1-0.4-2.1-0.6-3.1-0.7c-1.7-0.1-3,0.4-4.1,1.3c-0.3,0.3-0.6,0.6-0.8,1
			C330.3,53.9,330.2,54.3,330.3,54.8z"/>
		<path d="M343.9,61.9c0,0.4,0.1,0.7,0.4,1c0.2,0.2,0.5,0.4,0.8,0.5c0.4,0.2,0.9,0.5,1.4,0.6c1.4,0.5,2.9,0.7,4.4,0.9
			c3.2,0.4,6.5,0.6,9.8,0.6c0.5,0,0.9-0.1,1.4-0.1c0.2,0,0.3,0.1,0.5,0.1c0.2,0.1,0.4,0.4,0.4,0.7c0,0,0,0,0,0c0,0-0.1,0.1-0.2,0.1
			c-0.2,0-0.3,0-0.5,0c-3.1,0.3-6.3,0.2-9.5-0.1c-1.5-0.1-2.9-0.3-4.3-0.6c-0.8-0.2-1.6-0.5-2.4-0.8c-0.2-0.1-0.4-0.2-0.6-0.3
			c-0.3-0.2-0.5-0.4-0.7-0.6c-0.9-0.8-1.5-1.8-1.9-2.8c-0.3-0.8-0.2-1.6,0.1-2.2c0.1-0.2,0.2-0.3,0.3-0.4c1.6-2.2,3.9-3.7,7-4.2
			c1.2-0.2,2.5-0.2,3.9,0.3c0.2,0.1,0.3,0.1,0.5,0.2c0.3,0.2,0.6,0.5,0.8,0.9c0.2,0.4,0.6,0.9,0.8,1.4c0.2,0.4,0.2,0.7,0.1,1
			c-0.1,0.1-0.1,0.1-0.2,0.2c-1.3,1.1-2.9,1.7-4.9,1.6c-0.6-0.1-1.2-0.2-1.6-0.5c-0.5-0.3-0.9-0.7-1.2-1.2c-0.2-0.2-0.3-0.4-0.4-0.5
			c-0.2-0.1-0.3,0-0.7,0.2c-0.8,0.6-1.6,1.2-2.3,1.9c-0.2,0.2-0.4,0.5-0.6,0.7C344.1,61,343.9,61.5,343.9,61.9z M350.8,58.5
			c1.2-0.1,2.2-0.5,3-1.2c0.1-0.1,0.3-0.2,0.4-0.2c0,0,0-0.1,0-0.1c0-0.1-0.1-0.1-0.1-0.1c-0.2-0.1-0.4-0.1-0.5-0.1
			c-1.8-0.3-3.3,0-4.8,0.6c-0.2,0.1-0.3,0.1-0.3,0.2c-0.1,0.1,0.1,0.3,0.3,0.5c0.1,0,0.1,0.1,0.2,0.1
			C349.6,58.5,350.2,58.6,350.8,58.5z"/>
		<path d="M363.6,67.9c2.1-1,4.4-1.6,7-1.8c0.5-0.1,1,0,1.6,0.2c0.2,0.1,0.3,0.2,0.5,0.3c0.2,0.2,0.4,0.3,0.5,0.5
			c0.5,0.8,1,1.6,1,2.5c0.1,0.6,0.3,0.9,0.7,1.2c0.2,0.2,0.4,0.3,0.6,0.4c0.8,0.4,1.6,0.7,2.4,0.5c0.2-0.1,0.4,0,0.5,0
			c0.1,0,0.1,0.2,0.2,0.3c0.2,0.4,0.3,0.6,0.2,0.7c-0.1,0.1-0.2,0.2-0.5,0.2c-1.1,0.2-2.3,0-3.4-0.9c-0.1,0-0.1-0.1-0.2-0.1
			c-0.2-0.2-0.4-0.4-0.5-0.6c-0.3-0.7-0.7-1.3-1-2c-0.1-0.4-0.2-0.6-0.3-0.9c0-0.3,0-0.4-0.2-0.4c-0.1-0.1-0.2-0.1-0.4-0.2
			c-0.7-0.3-1.4-0.3-2-0.2c-2.2,0.2-4.2,0.7-6.1,1.4c-1.7,0.6-3.2,1.5-4.8,2.3c-0.2,0.1-0.4,0.2-0.7,0.3c-0.2,0.1-0.3,0.1-0.4,0
			c-0.1-0.1-0.1-0.1-0.2-0.2c-0.2-0.2-0.3-0.5-0.6-0.7c-0.3-0.4-0.3-0.7,0-1c0.4-0.5,0.8-1.1,1.3-1.5c1.9-1.9,3.9-3.6,6.3-5
			c0.8-0.5,1.6-1,2.6-1.3c0.3-0.1,0.6-0.1,0.8-0.2c0.2,0,0.3,0.1,0.4,0.2c0.1,0,0.2,0.1,0.2,0.2c0.2,0.4,0.5,0.8,0.7,1.2
			c0.1,0.2,0.1,0.4,0.1,0.5c-0.1,0.1-0.2,0.1-0.3,0.1c-0.2,0.1-0.4,0.1-0.7,0.1c-0.5,0-1,0.2-1.4,0.4c-2,1-3.6,2.3-5.2,3.6
			c0,0,0,0.1-0.1,0.1c0,0,0,0,0,0.1C362.8,68.3,363.2,68.1,363.6,67.9z"/>
	</g>
</g>
<g class="st3">
	<g>
		<path d="M101.6,413.1c0.2-0.1,0.6-0.2,0.8-0.5c0,0,0.1-0.1,0.1-0.2c0,0,0,0,0,0c0-0.1,0.2-0.1,0.3-0.1c0.1,0,0.1,0,0.1,0
			c0.1,0.1,0.1,0.1,0.1,0.2c0.1,0.3,0.2,0.6,0.3,0.9c0.1,0.2,0,0.3,0,0.4c0,0.1-0.1,0.1-0.2,0.2c-0.5,0.6-1.3,0.9-2.1,1
			c-0.1,0-0.2,0-0.2,0c-0.1,0-0.1,0.1-0.1,0.1c0,0,0,0.1-0.1,0.2c0.2,0.7,0.7,1.4,1.2,2c0.1,0.1,0.2,0.1,0.3,0c0.1,0,0.2-0.1,0.3,0
			c0,0,0.1,0.1,0.1,0.2c0.2,0.3,0.4,0.7,0.5,1.1c0,0.1,0,0.2,0,0.4c0,0.1,0,0.1-0.1,0.2c-0.1,0.1-0.3,0.2-0.5,0.1
			c-0.1-0.1-0.3-0.1-0.3-0.2c-0.1-0.1-0.2-0.2-0.3-0.2c-0.5-0.6-0.9-1.2-1.2-1.9c-0.2-0.5-0.4-0.9-0.6-1.4c0-0.2-0.1-0.3-0.1-0.3
			s-0.2-0.1-0.4,0c-1.2,0-2.5-0.1-3.7-0.6c-0.9-0.3-1.7-0.7-2.4-1.2c-0.7-0.5-1.2-1.1-1.5-1.9c-0.2-0.4-0.3-0.7-0.4-1.1
			c-0.2-0.7-0.1-1.2,0.2-1.6c0.1-0.1,0.2-0.2,0.3-0.3c0.5-0.4,1.1-0.7,1.7-0.9c1.2-0.4,2.5-0.5,3.8-0.6c1-0.1,2-0.1,3.1-0.1
			c0.3,0,0.5-0.1,0.7-0.4c0-0.1,0.1-0.1,0.1-0.2c1-1.4,2.5-2.4,4.3-3c1.3-0.4,2.6-0.5,4.1-0.2c0.5,0.1,1,0.3,1.5,0.6
			c0.3,0.2,0.5,0.5,0.6,0.9c0,0.3,0.1,0.6,0.1,0.8c0,0.3,0,0.5-0.1,0.7c-0.1,0.1-0.1,0.2-0.2,0.3c-0.3,0.2-0.6,0.4-0.9,0.5
			c-1,0.4-2.1,0.6-3.2,0.7c-1.6,0.2-3.3,0.4-5,0.4c-0.3,0-0.6,0.1-0.8,0.3c0,0,0,0.1-0.1,0.1c-0.8,1.4-1.2,2.9-1.2,4.7
			c0,0,0,0.1,0.1,0.2C100.8,413.4,101.2,413.2,101.6,413.1z M99.8,408.2c-1.6,0.1-3.2,0.2-4.6,0.5c-0.9,0.2-1.8,0.5-2.5,1.1
			c-0.1,0.1-0.2,0.2-0.3,0.4c-0.1,0.2-0.3,0.3-0.3,0.6c0,0.2,0,0.4,0.2,0.6c0.3,0.3,0.5,0.5,0.8,0.7c0.1,0.1,0.2,0.1,0.3,0.2
			c1.8,1,3.8,1.4,5.7,1.3c0.2,0,0.2,0,0.3-0.1c0-0.1,0-0.1,0-0.3c-0.2-1.7,0-3.3,0.6-4.8c0-0.1,0.1-0.1,0-0.2c0,0,0,0,0,0
			C99.8,408.2,99.8,408.2,99.8,408.2z M103.1,406.7c0,0,0.1,0,0.2,0c1.3-0.1,2.5-0.2,3.7-0.3c0.9-0.1,1.8-0.3,2.6-0.6
			c0.4-0.1,0.7-0.3,1.1-0.5c0.1,0,0.1,0,0.1-0.1s0-0.1,0-0.1c0,0,0-0.1-0.1-0.1c-0.1,0-0.1-0.1-0.1-0.1c-0.3-0.1-0.5-0.2-0.7-0.2
			c-0.7-0.1-1.3-0.2-1.9-0.1c-1.8,0.1-3.3,0.8-4.6,1.8c-0.1,0-0.2,0.1-0.3,0.2C103.1,406.6,103.1,406.7,103.1,406.7
			C103.1,406.7,103.1,406.7,103.1,406.7z"/>
		<path d="M141.7,429.8c-3,2.1-6.2,4-9.5,5.7c-2.7,1.4-5.5,2.7-8.6,3.5c-1.7,0.5-3.4,0.9-5.3,0.9c-1,0-2,0-3-0.3
			c-0.4-0.1-0.9-0.3-1.3-0.5c-0.1-0.1-0.3-0.2-0.4-0.3c-0.4-0.3-0.9-0.5-1.2-0.8c-0.5-0.4-0.9-1-1.1-1.5c-0.3-1.1-0.2-2.1,0.1-2.9
			c0.2-0.5,0.5-1,0.7-1.5c0.5-0.8,1-1.6,1.6-2.3c2.2-2.7,4.9-5,7.6-7.2c1.6-1.3,3.2-2.6,4.7-3.9c1.7-1.4,3.5-2.7,5.2-4
			c2.1-1.6,4.4-3.1,6.7-4.7c0.3-0.2,0.4-0.3,0.6-0.3c0.1,0,0.2,0.2,0.4,0.4c0.2,0.2,0.3,0.4,0.5,0.6c0.1,0.2,0.2,0.2,0.1,0.4
			c0,0-0.1,0.1-0.2,0.1c-0.5,0.4-1,0.7-1.5,1.1c-3.3,2.4-6.5,4.7-9.6,7.2c-3.6,2.9-7.3,5.8-10.6,9c-1.1,1.1-2.2,2.3-3.2,3.5
			c-0.4,0.5-0.7,1-1,1.5c-0.3,0.5-0.5,1-0.6,1.5c-0.2,0.6-0.3,1.2-0.1,1.9c0,0.2,0.1,0.4,0.1,0.6c0.1,0.4,0.3,0.6,0.6,0.8
			c0.1,0.1,0.3,0.1,0.5,0.2c1.1,0.3,2,0.4,3.1,0.4c1.9,0,3.7-0.4,5.4-0.9c3.5-1,6.7-2.5,9.7-4.1c2.7-1.4,5.2-3.1,7.7-4.7
			c2.1-1.4,4.1-2.8,6.1-4.2c2.2-1.5,4.4-3,6.5-4.6c1.3-1,2.6-1.9,4-2.8c0.8-0.6,1.5-1,2.3-1.6c0.1-0.1,0.1-0.1,0.2-0.1
			c0.1,0,0.2-0.1,0.3,0c0,0,0.1,0.1,0.2,0.1c0.2,0.3,0.4,0.5,0.6,0.8c0.1,0.1,0.1,0.2,0.1,0.3c0,0,0,0.1-0.1,0.1
			c-0.1,0-0.1,0.1-0.1,0.1c-1.5,1.2-2.9,2.5-4.5,3.7c-2.9,2.4-5.8,4.8-8.7,7.4c-2.3,2-4.6,4-6.7,6.1c-1.7,1.7-3.4,3.3-4.8,5.2
			c-0.8,1-1.5,2.1-2.1,3.3c-0.1,0.2-0.2,0.4-0.3,0.6c-0.2,0.5-0.4,1.1-0.4,1.7c0,0.3,0,0.4,0.1,0.5c0.1,0,0.3,0,0.5,0
			c0.2-0.1,0.4-0.2,0.6-0.3c0.2-0.1,0.4-0.1,0.5,0.1c0,0,0.1,0.1,0.2,0.2c0.3,0.2,0.4,0.3,0.4,0.4c0,0.1-0.1,0.2-0.3,0.2
			c-0.3,0.2-0.6,0.3-1,0.4c-0.3,0-0.5,0-0.8-0.1c-0.1,0-0.1-0.1-0.2-0.1c-0.3-0.2-0.5-0.3-0.8-0.5c-0.5-0.3-0.7-0.6-0.9-1.1
			c-0.1-0.5-0.1-1-0.1-1.4c0.1-0.8,0.3-1.6,0.7-2.3c0.2-0.4,0.5-0.9,0.7-1.3c1.6-2.4,3.7-4.3,5.7-6.2c1.4-1.4,2.9-2.7,4.4-4
			c0-0.1,0.1-0.1,0.2-0.2c0,0-0.1,0-0.1,0C142.3,429.5,142,429.6,141.7,429.8z"/>
		<path d="M175.8,421.6c-0.1,0-0.2,0-0.3,0.1c0,0,0,0,0,0c0,0.2,0,0.5-0.1,0.7c-0.1,0.3-0.3,0.6-0.5,0.9c-0.6,0.9-1.3,1.7-2,2.5
			c-1.9,2-3.9,3.9-5.8,5.9c-3.1,3.1-6.3,6.1-9.4,9.2c-1.8,1.8-3.7,3.6-5.4,5.4c-1.3,1.4-2.5,2.8-3.6,4.3c-0.1,0.2-0.2,0.4-0.3,0.6
			c0,0.1,0,0.1-0.1,0.2c0,0.1,0,0.1,0.1,0.2c0.1,0,0.2,0.1,0.3,0.1c1,0.1,1.9,0.2,2.8,0.2c0.6,0,1.2,0.1,1.8,0.1
			c0.2,0,0.3,0,0.4,0.1c0.2,0.1,0.3,0.3,0.4,0.5c0.1,0.3,0.2,0.6,0.3,0.8c0,0.1,0,0.1,0,0.1c0,0.1-0.1,0.1-0.2,0.2
			c-0.2,0.1-0.3,0.1-0.5,0.1c-0.1,0-0.2,0-0.3,0c-0.1,0-0.1,0-0.1-0.1c0-0.1-0.1-0.1-0.2-0.2c-0.1,0-0.2-0.1-0.3-0.1
			c-0.3,0-0.7-0.1-1-0.1c-0.5-0.1-0.9,0-1.3,0.1c-0.6,0.3-1.2,0.2-1.8,0c-0.2-0.1-0.4-0.1-0.6-0.3c-0.1-0.1-0.2-0.1-0.4-0.2
			c-0.2-0.1-0.3-0.1-0.5-0.1c-0.6-0.1-1.3-0.1-1.9-0.2c-0.3,0-0.6-0.1-0.9-0.2c-0.2-0.1-0.4-0.1-0.5-0.2c-0.6-0.4-0.8-0.9-1-1.5
			c0,0,0-0.1,0.1-0.1c0.1,0,0.1,0,0.2,0c0,0,0.1,0,0.1,0.1c0.2,0.2,0.4,0.4,0.7,0.5c0.4,0.2,0.9,0.2,1.3,0.2c0.3,0,0.6,0.1,0.8,0
			c0.1,0,0.1-0.1,0.1-0.1c0.1-0.2,0-0.3,0-0.5c0-0.1,0.1-0.3,0.1-0.5c0.2-0.5,0.5-0.9,0.8-1.3c1.4-1.8,2.9-3.6,4.6-5.2
			c3.3-3.3,6.6-6.6,9.9-9.8c2.4-2.3,4.7-4.6,7.1-6.8c1.3-1.3,2.6-2.6,3.9-3.9c0.4-0.4,0.9-1,1.2-1.5c0-0.1,0.1-0.2,0.1-0.3
			c0,0,0,0,0,0c0-0.1,0-0.1-0.1-0.1c0,0-0.1,0-0.1,0c-0.1,0-0.2,0-0.4,0c-0.8-0.1-1.5-0.1-2.3-0.3c-0.2,0-0.5-0.1-0.7-0.2
			c-0.9-0.3-1.6-0.8-2-1.6c0,0-0.1-0.1-0.1-0.1c-0.1-0.1-0.1-0.2-0.1-0.3c0,0,0.1,0,0.1-0.1c0.1-0.1,0.1-0.1,0.2,0
			c0,0,0.1,0,0.1,0.1c0.3,0.3,0.7,0.5,1.1,0.6c0.3,0.1,0.7,0.2,1,0.2c1.6,0.1,3.2,0.2,4.8,0.3c0.8,0,1.6,0.1,2.4,0.2
			c0.1,0,0.2,0,0.3,0c0.3,0.1,0.5,0.3,0.7,0.5c0.2,0.3,0.4,0.6,0.6,0.9c0.1,0.2,0.2,0.3,0.1,0.4c0,0.1-0.2,0.2-0.4,0.2
			c-0.3,0.1-0.7,0.1-1.1,0.2c-0.1,0-0.1,0-0.2,0c-0.1,0-0.1,0-0.2-0.1c-0.1-0.2-0.4-0.4-0.3-0.7
			C176.8,421.7,176.3,421.6,175.8,421.6z"/>
		<path d="M195.4,430.3c-0.5,0.5-1.1,1-1.6,1.4c-2.3,1.8-4.8,3.5-7.2,5.1c-3.1,2.1-6.2,4.3-9.3,6.4c-2.7,1.9-5.6,3.8-8.5,5.6
			c-0.7,0.4-1.4,0.9-2.1,1.3c-0.3,0.1-0.3,0.2-0.5,0.1c-0.1,0-0.2-0.1-0.4-0.2c-0.3-0.2-0.5-0.4-0.8-0.6c-0.2-0.1-0.3-0.2-0.2-0.3
			c0,0,0.1-0.1,0.2-0.2c0.2-0.1,0.4-0.2,0.6-0.3c5.1-3,9.9-6.2,14.6-9.5c2.9-2.1,5.8-4.1,8.7-6.1c1.6-1.1,3.3-2.3,4.8-3.5
			c0.2-0.2,0.5-0.4,0.7-0.6c0.1-0.1,0.2-0.1,0.3-0.1c0.1,0,0.2,0.1,0.3,0.2c0.2,0.3,0.4,0.5,0.6,0.8c0.1,0.1,0.1,0.2,0.1,0.3
			C195.6,430.1,195.5,430.3,195.4,430.3z"/>
		<path d="M216.6,449.9c-2.2,3-4.5,5.9-7.1,8.6c-2.1,2.2-4.3,4.4-6.9,6.2c-1.4,1-2.9,2-4.6,2.6c-0.9,0.3-1.8,0.6-2.8,0.7
			c-0.4,0-0.9,0-1.3-0.1c-0.2,0-0.3-0.1-0.5-0.1c-0.4-0.2-1-0.2-1.4-0.4c-0.6-0.3-1.1-0.7-1.5-1.1c-0.6-0.9-0.8-1.9-0.8-2.8
			c0-0.5,0.1-1.1,0.2-1.7c0.2-0.9,0.5-1.8,0.8-2.7c1.2-3.3,3-6.5,4.8-9.5c1.1-1.8,2.1-3.5,3.2-5.3c1.1-1.9,2.4-3.8,3.6-5.6
			c1.5-2.3,3.1-4.5,4.7-6.7c0.2-0.3,0.3-0.5,0.5-0.5c0.1,0,0.3,0.2,0.5,0.3c0.2,0.1,0.4,0.2,0.6,0.4c0.2,0.1,0.3,0.2,0.2,0.3
			c0,0-0.1,0.1-0.1,0.2c-0.4,0.5-0.7,1-1,1.5c-2.3,3.3-4.6,6.6-6.7,10c-2.4,4-5,8-7,12.2c-0.7,1.4-1.3,2.9-1.8,4.4
			c-0.2,0.6-0.4,1.2-0.5,1.8c-0.1,0.5-0.1,1.1-0.1,1.6c0,0.6,0.1,1.3,0.5,1.9c0.1,0.2,0.2,0.3,0.3,0.5c0.2,0.3,0.5,0.5,0.8,0.6
			c0.2,0,0.3,0,0.6,0c1.1-0.1,2-0.3,2.9-0.7c1.8-0.7,3.3-1.6,4.7-2.6c3-2.1,5.5-4.6,7.8-7.1c2-2.3,3.9-4.7,5.6-7.1
			c1.5-2,2.9-4.1,4.4-6.1c1.6-2.2,3.1-4.3,4.6-6.5c1-1.4,1.8-2.7,2.8-4c0.6-0.8,1.1-1.5,1.7-2.2c0.1-0.1,0.1-0.1,0.1-0.2
			c0.1-0.1,0.2-0.1,0.3-0.1c0,0,0.1,0,0.2,0.1c0.3,0.2,0.6,0.4,0.9,0.6c0.1,0,0.2,0.1,0.2,0.3c0,0,0,0.1-0.1,0.2c0,0,0,0.1-0.1,0.2
			c-1,1.6-2,3.3-3,5c-1.9,3.3-3.9,6.6-5.8,9.9c-1.5,2.7-3,5.3-4.3,8.1c-1,2.1-2.1,4.3-2.9,6.6c-0.4,1.2-0.8,2.5-0.9,3.8
			c0,0.3,0,0.4-0.1,0.7c-0.1,0.6,0,1.2,0.1,1.8c0.1,0.3,0.2,0.4,0.3,0.4c0.1,0,0.3-0.1,0.5-0.2c0.2-0.1,0.3-0.3,0.5-0.5
			c0.1-0.1,0.4-0.2,0.5-0.1c0,0,0.2,0.1,0.3,0.1c0.3,0.1,0.5,0.1,0.5,0.3c0,0.1-0.1,0.2-0.2,0.3c-0.2,0.3-0.5,0.5-0.8,0.7
			c-0.2,0.1-0.5,0.2-0.8,0.1c-0.1,0-0.1,0-0.2,0c-0.3-0.1-0.6-0.1-0.9-0.2c-0.5-0.1-0.9-0.4-1.1-0.7c-0.3-0.4-0.4-0.9-0.5-1.4
			c-0.2-0.8-0.2-1.6-0.1-2.4c0.1-0.5,0.2-1,0.3-1.4c0.7-2.8,2.1-5.3,3.4-7.9c0.9-1.8,1.8-3.5,2.9-5.3c0-0.1,0.1-0.2,0.1-0.2
			c0,0-0.1,0-0.1,0C217.1,449.3,216.9,449.6,216.6,449.9z"/>
		<path d="M228.6,454.8c1.2-1.3,2.3-2.6,3.5-3.9c1.4-1.4,2.6-2.9,4.2-4.2c0.1-0.1,0.2-0.2,0.3-0.3c0.1-0.1,0.3-0.2,0.4-0.2
			c0.1,0,0.1,0,0.2,0c0.3,0.1,0.6,0.1,0.9,0.2c0.1,0,0.3,0.1,0.3,0.2c0,0.2-0.1,0.3-0.3,0.3c-0.2,0-0.4,0.2-0.6,0.3
			c-1,0.8-1.9,1.7-2.8,2.6c-2,1.9-3.8,4.1-5.7,6.1c-0.1,0.1-0.2,0.2-0.2,0.4c0,0.1,0,0.2,0.1,0.4c0.4,0.9,1.1,1.7,1.9,2.4
			c0.1,0,0.2,0.1,0.3,0.1c0.5,0.3,0.9,0.5,1.5,0.5c0.3,0,0.6-0.1,1-0.2c0.9-0.3,1.7-0.7,2.4-1.2c1.6-1.1,3-2.3,4.2-3.6
			c1.1-1,2.2-2.1,3.1-3.2c0.1-0.1,0.2-0.2,0.4-0.2c0.1,0,0.2,0,0.3,0c0.1,0,0.2,0,0.2,0.1c0,0,0.1,0,0.1,0.1c0,0.1-0.1,0.2-0.2,0.3
			c-1,1.3-2.1,2.5-3.3,3.7c-0.9,0.9-1.9,1.9-2.9,2.7c-0.7,0.6-1.5,1.1-2.3,1.5c-0.8,0.4-1.8,0.6-2.8,0.5c-0.3,0-0.5,0-0.8,0
			c-0.3,0-0.5,0-0.8-0.1c-0.8-0.2-1.6-0.5-2.2-1c-0.4-0.4-0.9-0.8-1.2-1.2c-0.1-0.1-0.1-0.2-0.2-0.2c-0.1,0-0.1,0-0.2,0.2
			c-0.5,0.6-1.1,1.2-1.6,1.7c-0.6,0.6-1.1,1.1-1.8,1.6c-0.3,0.2-0.6,0.3-0.9,0.4c-0.3,0.1-0.5,0.1-0.7,0.1c-0.4,0-0.8-0.2-1.2-0.3
			c-0.1-0.1-0.2-0.1-0.1-0.2s0.1-0.2,0.1-0.2c0.2-0.2,0.5-0.3,0.8-0.2c0,0,0.1,0,0.1,0c0.1,0,0.2,0.1,0.2,0.1c0.3,0,0.5-0.1,0.7-0.3
			c0.3-0.3,0.7-0.5,0.9-0.8c0.9-0.9,1.9-1.9,2.9-2.9c0.1-0.1,0.2-0.2,0.2-0.3c0-0.1,0-0.2-0.1-0.3c-0.9-2-1.3-4-1.7-6.1
			c-0.1-0.5-0.2-1.1-0.3-1.6c0-0.1-0.1-0.3-0.1-0.4c0-0.3,0.1-0.4,0.3-0.4c0,0,0.1,0.1,0.2,0.1c0.4,0.1,0.8,0.2,1.1,0.3
			c0.2,0.1,0.3,0.3,0.3,0.5c0.2,0.9,0.3,1.7,0.5,2.5c0.3,1.2,0.5,2.3,1,3.5c0,0.1,0.1,0.2,0.2,0.3
			C228.4,455.1,228.5,454.9,228.6,454.8z"/>
		<path d="M266.7,447.2c0.4-1.1,0.8-2.1,1.2-3.2c0.5-1.1,1-2.4,1.6-3.5c0.3-0.6,0.6-1.2,0.9-1.8c0.9-1.9,1.9-3.7,3.1-5.5
			c0.7-1,1.3-2,2.1-2.9c1.3-1.6,2.7-3.1,4.5-4.2c0.8-0.5,1.6-0.8,2.4-1c0.3-0.1,0.5-0.1,0.8-0.1c0.5,0,1,0,1.5,0.2
			c0.3,0.1,0.6,0.2,0.9,0.3c1.1,0.3,1.8,0.9,2.4,1.7c0.8,1,1.3,2.2,1.7,3.4c0.1,0.5,0.3,0.9,0.4,1.3c0.4,1.5,0.4,3.1,0.4,4.6
			c0,3.2-0.6,6.3-1.6,9.4c-0.8,2.4-2.1,4.9-3.5,7.2c-0.9,1.5-2,3.1-3.2,4.5c-1.2,1.5-2.6,3.1-4.1,4.5c-1.2,1.1-2.5,2.2-3.8,3.1
			c-1.9,1.3-3.9,2.5-6.2,3.4c-1.3,0.5-2.6,0.9-4.1,1c-0.1,0-0.2,0-0.3,0c-1.6,0.1-3.1-0.2-4.5-0.7c-1.2-0.4-1.9-1.3-2-2.3
			c0-0.1,0-0.3,0-0.4c0-1,0.4-1.9,1-2.7c0.7-1,1.5-2,2.6-2.9c0.4-0.3,0.6-0.7,0.6-1.2c0-0.6,0.1-1.3,0.2-1.9
			c0.5-2.8,1.2-5.6,1.9-8.3c0.9-3.2,1.8-6.5,2.7-9.7c0.8-2.5,1.5-5.1,2.4-7.5c0.2-0.6,0.5-1.2,0.7-1.8c0-0.1,0.1-0.2,0.2-0.3
			c0.1-0.3,0.2-0.4,0.4-0.4c0.1,0,0.3,0,0.5,0.1c0.2,0.1,0.5,0.2,0.7,0.2c0.2,0.1,0.2,0.1,0.3,0.2c0,0,0,0.1-0.1,0.2
			c0,0.1-0.1,0.3-0.2,0.4c-0.2,0.4-0.3,0.8-0.3,1.2c0,0.1-0.1,0.2,0,0.3c0,0.1,0.1,0.1,0.1,0.2c0.1,0,0.1,0.1,0.1,0.1
			c0,0,0,0.1-0.1,0.1c0,0-0.1,0-0.1,0c0,0-0.1,0-0.1,0c-0.1,0-0.2,0.2-0.2,0.3c-0.6,1.9-1.2,3.9-1.8,5.8c-0.8,2.9-1.7,5.8-2.5,8.8
			c-0.2,0.6-0.4,1.2-0.5,1.8c0,0.1-0.1,0.3-0.1,0.4c0,0,0.1,0,0.1,0C266.1,448.8,266.4,448,266.7,447.2z M265,457.7
			c0.7-0.4,1.5-0.7,2.3-1c0.3-0.1,0.6-0.2,0.9-0.2c0.5-0.1,0.8,0,1.3,0c0.2,0,0.3,0.1,0.3,0.2c0,0.1-0.1,0.3-0.2,0.3
			c-0.2,0.2-0.5,0.3-0.7,0.4c-1.6,0.8-3.2,1.7-4.6,2.8c-1.2,0.9-2.4,1.9-3.3,3c-0.5,0.6-0.9,1.2-1.2,1.8c-0.3,0.5-0.4,1.1-0.4,1.7
			c0,0.2,0.1,0.4,0.2,0.6c0.3,0.9,1.5,1.6,2.6,1.5c0.8-0.1,1.6-0.1,2.3-0.3c1.5-0.4,2.9-0.9,4.2-1.6c1.6-0.8,3.2-1.8,4.6-2.8
			c1.5-1.1,2.9-2.4,4.2-3.7c1.2-1.2,2.3-2.5,3.3-3.7c1.2-1.5,2.2-3.1,3.1-4.7c1.3-2.3,2.4-4.7,3.2-7.1c0.9-2.7,1.5-5.6,1.6-8.3
			c0.1-1.8-0.1-3.6-0.5-5.4c-0.1-0.3-0.1-0.4-0.2-0.7c-0.2-0.9-0.6-1.8-1-2.6c-0.4-0.7-0.8-1.3-1.4-1.8c-0.4-0.4-0.8-0.5-1.3-0.4
			c-0.2,0-0.4,0-0.6,0.1c-0.6,0.1-1.1,0.3-1.7,0.6c-1.3,0.7-2.3,1.6-3.3,2.5s-1.9,2-2.7,3.2c-1,1.4-1.9,2.8-2.8,4.3
			c-1,1.6-1.8,3.3-2.6,5c-1.1,2.3-2.1,4.7-2.9,7.1c-1.1,2.9-2.1,5.9-3.1,8.9c0,0.1-0.1,0.3-0.1,0.4
			C264.8,457.8,264.9,457.7,265,457.7z"/>
		<path d="M296.4,451.1c0.2,0.2,0.5,0.4,0.8,0.3c0.3,0,0.5-0.1,0.8-0.1c0.4-0.1,0.9-0.2,1.2-0.4c1.2-0.5,2.2-1.3,3.2-2.1
			c2.1-1.8,4-3.7,5.7-5.9c0.2-0.3,0.4-0.6,0.6-0.9c0.1-0.1,0.2-0.2,0.3-0.2c0.2-0.1,0.5,0,0.6,0.1c0,0,0,0,0,0c0,0,0,0.1,0,0.2
			c-0.1,0.1-0.1,0.2-0.2,0.3c-1.4,2.2-3.1,4.2-5.1,6.1c-0.9,0.9-1.8,1.7-2.9,2.4c-0.6,0.4-1.3,0.7-2,1c-0.2,0-0.3,0.1-0.5,0.2
			c-0.3,0.1-0.5,0.1-0.8,0.1c-1.1,0-2-0.2-2.8-0.7c-0.6-0.3-1.1-0.9-1.2-1.5c0-0.2,0-0.3,0-0.4c-0.3-2.4,0.3-4.6,1.7-6.7
			c0.6-0.9,1.3-1.6,2.3-2.1c0.1-0.1,0.2-0.1,0.4-0.1c0.3-0.1,0.6-0.1,0.9,0c0.4,0.1,0.8,0.2,1.3,0.3c0.3,0.1,0.5,0.3,0.6,0.5
			c0,0.1,0,0.1,0,0.2c0,1.5-0.6,2.8-1.7,3.9c-0.4,0.3-0.8,0.6-1.2,0.7c-0.4,0.1-0.9,0.1-1.4,0c-0.3,0-0.4-0.1-0.5-0.1
			c-0.1,0-0.2,0.2-0.3,0.5c-0.2,0.8-0.3,1.7-0.3,2.5c0,0.3,0,0.6,0.1,0.8C296,450.4,296.1,450.8,296.4,451.1z M298.5,444.9
			c0.6-0.8,0.9-1.6,1-2.5c0-0.1,0.1-0.3,0.1-0.4c0,0-0.1-0.1-0.1-0.1c-0.1,0-0.1,0-0.1,0c-0.1,0-0.3,0.2-0.3,0.3
			c-1.1,0.9-1.8,2-2.3,3.2c-0.1,0.2-0.1,0.2-0.1,0.3s0.2,0.1,0.4,0.1c0.1,0,0.1,0,0.1,0C297.8,445.6,298.2,445.3,298.5,444.9z"/>
		<path d="M308.3,458.5c-0.8,0-1.6,0-2.3-0.1c-1.9-0.4-3.4-1.3-4.1-2.8c-0.1-0.3-0.3-0.6-0.3-0.8c-0.1-0.5-0.1-1-0.1-1.5
			c0.1-1.5,0.7-2.9,1.8-4.2c0.7-0.8,1.5-1.5,2.5-2c1.2-0.8,2.5-1.4,3.8-2c0.4-0.2,0.6-0.2,0.5-0.4c0-0.1-0.1-0.2-0.2-0.3
			c-0.7-1-1.3-2-1.7-3.2c-0.1-0.2-0.2-0.4-0.2-0.6c-0.2-0.8-0.3-1.7-0.2-2.5c0.1-0.6,0.4-1.3,0.9-1.8c0.2-0.3,0.6-0.5,1-0.6
			c0.4-0.1,0.8-0.2,1.2,0c0.3,0.1,0.8,0.3,1.1,0.3c0.4,0.1,0.6,0.3,0.7,0.6c0,0.1,0,0.1,0,0.1c0,0.3,0,0.6-0.1,0.9
			c0,0.1-0.1,0.2-0.1,0.2c0,0-0.1,0-0.2,0c-0.3-0.1-0.5-0.2-0.6-0.4c-0.1-0.3-0.1-0.4-0.2-0.7c-0.1-0.2-0.3-0.3-0.5-0.2
			c-0.1,0-0.1,0-0.1,0c-0.4,0.3-0.7,0.6-0.9,1.1c-0.3,0.6-0.3,1.4-0.2,2c0,0.4,0.1,0.7,0.2,1.1c0.2,0.8,0.6,1.5,1,2.2
			c0.2,0.3,0.3,0.5,0.5,0.8c0.1,0.2,0.2,0.2,0.3,0.2c0,0,0.1,0,0.2-0.1c0.4-0.2,0.9-0.5,1.3-0.8c1.2-0.8,2.4-1.6,3.5-2.6
			c0.8-0.6,1.4-1.3,1.7-2.2c0.1-0.2,0.1-0.3,0.2-0.3c0.1,0,0.2,0,0.3,0c0.2,0,0.3,0.1,0.3,0.2c0,0,0,0.1,0,0.2
			c-0.3,0.8-0.7,1.5-1.4,2.1c-1.6,1.5-3.3,2.8-5.2,3.9c0,0.1-0.1,0.1-0.1,0.1c-0.2,0.1-0.4,0.2-0.3,0.3c0,0.1,0.1,0.2,0.2,0.2
			c0.4,0.6,0.9,1.2,1.4,1.7c0.6,0.8,1.4,1.6,1.9,2.4c0.3,0.5,0.6,1,0.7,1.5c0.3,1,0.3,2.2-0.2,3.3c-0.5,1-1.2,1.9-2.2,2.7
			c-0.6,0.5-1.2,0.9-1.9,1.2c-0.4,0.2-0.8,0.3-1.2,0.4C310.1,458.4,309.2,458.5,308.3,458.5z M310.3,457.5c1.6-0.7,2.9-1.9,3.6-3.2
			c0.7-1.2,0.8-2.4,0.4-3.5c-0.1-0.4-0.3-0.8-0.5-1.1c-0.8-1.4-2-2.6-2.9-3.8c-0.1-0.2-0.2-0.2-0.3-0.2c-0.1,0-0.1,0-0.2,0.1
			c-0.5,0.2-1,0.5-1.5,0.7c-1.1,0.6-2.3,1.2-3.2,2c-1.3,1.1-2.2,2.5-2.5,4.1c-0.1,0.7-0.1,1.3,0,2c0.1,0.3,0.2,0.6,0.3,0.9
			c0.5,0.9,1.2,1.5,2.2,1.9c1,0.5,2.2,0.7,3.4,0.4c0.1,0,0.2,0,0.3-0.1C309.7,457.7,310,457.6,310.3,457.5z"/>
		<path d="M318.8,440.6c-0.1-1.5-0.2-3,0-4.6c0.1-0.4,0.1-0.9,0.2-1.4c0.1-0.2,0.1-0.3,0.1-0.4c0-0.1,0.1-0.2,0.2-0.2
			c0,0,0.1,0,0.2,0c0.5,0.1,1,0.1,1.5,0.2c0.1,0,0.2,0.1,0.3,0.1c0,0,0,0.1,0,0.2c-0.7,3.2-0.4,6.2,0,9.3c0,0.1,0.1,0.3,0.1,0.4
			c0.1,0.2,0.2,0.5,0.3,0.7c0.1,0.1,0.2,0.2,0.3,0.2c0.1,0,0.1,0,0.2-0.1c0.4-0.3,0.7-0.6,1-1c0.8-1,1.5-2,2.1-3.1
			c1.2-1.8,2.3-3.7,3.3-5.6c0.1-0.1,0.2-0.3,0.3-0.4c0,0,0.1,0,0.2,0c0.3,0,0.5,0,0.5,0.1c0,0.1,0,0.2-0.1,0.4
			c-1.1,2.3-2.3,4.5-3.5,6.7c-0.4,0.7-0.8,1.3-1.2,1.8c-0.4,0.5-0.8,1-1.3,1.4c-0.2,0.2-0.4,0.3-0.6,0.4c-0.2,0.1-0.4,0.1-0.7,0.1
			c-0.3,0-0.6,0-0.9,0c-0.5,0-0.8-0.2-1.1-0.5c-0.4-0.4-0.6-0.9-0.8-1.4C319,443,318.9,441.8,318.8,440.6z M319.5,431.2
			c0-1.1,0.2-2.2,0.5-3.2c0.1-0.3,0.2-0.5,0.3-0.7c0.1-0.2,0.2-0.4,0.3-0.4c0.1-0.1,0.3,0,0.5,0c0.2,0,0.5,0.1,0.7,0.1
			c0.2,0.1,0.3,0.1,0.3,0.2c0,0.1,0,0.2,0,0.3c-0.5,1-0.6,2-0.7,3c0,0.2-0.1,0.3,0,0.3s0.2,0.1,0.4,0.2c0.1,0,0.1,0.1,0.2,0.1
			c0,0,0,0.1,0,0.2c-0.1,0.4-0.3,0.7-0.5,1c-0.1,0.1-0.1,0.2-0.2,0.2c-0.1,0-0.2,0-0.3,0c-0.2-0.1-0.5-0.2-0.8-0.2
			c-0.2,0-0.3-0.2-0.4-0.4c0,0,0-0.1,0-0.1C319.5,431.7,319.5,431.5,319.5,431.2z"/>
		<path d="M341.3,434.3c1-1.6,2-3.2,3.1-4.7c0.6-0.8,1.2-1.6,1.9-2.4c0.1-0.1,0.2-0.1,0.3-0.2c0.2-0.1,0.4-0.1,0.6-0.1
			c0.1,0,0.1,0.1,0.1,0.1c0,0,0,0.1,0,0.2c-0.2,0.3-0.3,0.5-0.5,0.7c-0.7,0.9-1.3,1.8-1.9,2.7c-0.7,1.1-1.4,2.3-2.1,3.4
			c-0.8,1.3-1.6,2.5-2.3,3.8c-0.2,0.2-0.2,0.4-0.2,0.6c-0.1,2-0.2,3.9-0.5,5.8c-0.4,2.4-0.9,4.9-1.8,7.4c-0.5,1.4-1.1,2.6-1.9,3.9
			c-0.5,0.8-1.1,1.4-1.9,2c-0.1,0.1-0.3,0.2-0.5,0.2c-0.5,0.2-1,0.2-1.4,0.2c-0.6-0.1-0.8-0.4-0.9-0.8c0-0.1-0.1-0.2-0.1-0.3
			c-0.2-0.8-0.2-1.6,0-2.4c0.2-1.5,0.8-3.1,1.4-4.6c0.9-2.2,2.1-4.4,3.3-6.6c0.7-1.2,1.5-2.5,2.2-3.7c0.2-0.3,0.3-0.5,0.2-0.8
			c0.1-2.5,0-5-0.2-7.5c0-0.5-0.1-0.9-0.2-1.4c-0.1,0.3-0.3,0.6-0.5,0.9c-0.5,1.2-1.2,2.5-1.9,3.7c-0.6,0.9-1.1,1.9-2,2.7
			c-0.3,0.3-0.6,0.5-0.9,0.6c-0.3,0.1-0.7,0.2-1.1,0.1c-0.2-0.1-0.4-0.1-0.6-0.1c-0.9-0.1-1.5-0.5-1.8-1.2c-0.1-0.2-0.1-0.3-0.1-0.5
			c-0.2-1-0.1-2.1,0.2-3.1c0.4-1.2,0.9-2.4,1.8-3.5c0.4-0.5,1-0.9,1.5-1.3c0.1-0.1,0.3-0.2,0.4-0.2c0.5-0.2,1-0.2,1.5-0.2
			c0.4,0,0.7,0.1,1.2,0.1c0.4,0.1,0.8,0.2,1.1,0.5c0.2-0.2,0.2-0.4,0.3-0.6c0.1-0.3,0.2-0.4,0.3-0.5c0.1-0.1,0.3-0.1,0.5-0.1
			c0.3,0,0.7,0,1,0.1c0.2,0,0.4,0.1,0.4,0.2c0.1,0.2,0.2,0.4,0.2,0.6c0.4,1.9,0.6,3.8,0.6,5.8c0,0.6,0,1.1,0.1,1.7
			c0,0.1,0,0.1,0,0.1c0,0,0,0,0.1,0.1C340.6,435.3,340.9,434.8,341.3,434.3z M337.8,441.9c-0.6,1-1.1,1.9-1.6,2.9
			c-1.3,2.3-2.4,4.6-3.3,6.9c-0.4,1.1-0.7,2.2-0.8,3.3c-0.1,0.6,0,1.3,0.2,1.9c0.1,0.2,0.2,0.3,0.3,0.4c0.1,0.1,0.2,0.1,0.3,0.1
			c0.1,0,0.1,0,0.2-0.1c0.1-0.1,0.2-0.1,0.3-0.2c0.6-0.6,1-1.2,1.4-1.9c0.8-1.5,1.4-3.1,1.9-4.8c0.7-2.5,1.1-5,1.4-7.5
			c0.1-0.4,0.1-0.9,0.1-1.3C337.9,441.8,337.9,441.8,337.8,441.9z M335.1,428.8c-0.2-0.2-0.3-0.3-0.5-0.2c0,0-0.1,0.1-0.2,0.1
			c-0.4,0.3-0.8,0.6-1.2,1c-0.6,0.7-1.1,1.4-1.4,2.2c-0.6,1.3-0.9,2.6-0.9,4c0.1,0.3,0.1,0.5,0.2,0.8c0,0.1,0.1,0.1,0.1,0.2
			c0.1,0.2,0.2,0.3,0.5,0.2c0.1,0,0.1,0,0.1-0.1c0.1,0,0.2-0.1,0.3-0.2c0.6-0.3,1-0.8,1.4-1.4c1-1.4,1.7-2.9,2.3-4.4
			c0.1-0.1,0.2-0.3,0.1-0.4c-0.1-0.4-0.1-0.8-0.3-1.1c0,0,0-0.1-0.1-0.1C335.4,429.2,335.2,428.9,335.1,428.8z"/>
		<path d="M348.3,423.7c0.5-1.4,1.1-2.8,2.1-4c0.3-0.3,0.5-0.5,0.8-0.7c0.3-0.1,0.6-0.2,0.9-0.2c0.2,0,0.3-0.1,0.5-0.1
			c0.5-0.1,1,0.1,1.3,0.5c0.2,0.2,0.4,0.5,0.5,0.8c0.1,0.3,0.3,0.5,0.4,0.8c0.6,1.6,1,3.3,1.4,4.9c0.2,0.8,0.4,1.6,0.6,2.2
			c0.1,0.3,0.3,0.5,0.5,0.7c0.1,0.1,0.2,0.2,0.3,0.1c0.1-0.1,0.1-0.1,0.2-0.2c0.5-0.5,0.7-1.1,1-1.7c0.7-1.9,1.1-3.9,1.5-5.8
			c0.2-0.7,0.3-1.3,0.3-1.9c0-0.1,0-0.3,0.1-0.4c0,0,0,0,0,0c0.2-0.1,0.4-0.1,0.4,0c0,0,0.1,0.1,0.1,0.2c0.1,0.5,0,1.1-0.1,1.7
			c-0.3,1.9-0.6,3.7-1.1,5.6c-0.2,0.7-0.4,1.4-0.8,2c-0.2,0.3-0.4,0.6-0.7,0.8c-0.1,0.1-0.3,0.1-0.4,0.2c-0.3,0.1-0.6,0.2-1,0.3
			c-0.8,0.1-1.4-0.1-1.8-0.6c-0.2-0.2-0.3-0.3-0.4-0.5c-0.2-0.4-0.3-0.8-0.4-1.1c-0.4-1.2-0.6-2.5-0.9-3.8c-0.3-1.1-0.6-2.2-1.1-3.2
			c-0.1-0.2-0.2-0.4-0.3-0.5c-0.1-0.1-0.1-0.2-0.2-0.2c0,0-0.1,0.1-0.2,0.2c-0.5,0.7-1,1.3-1.4,2.1c-1.1,2.3-1.8,4.5-1.9,6.9
			c-0.1,0.7-0.1,1.4-0.1,2.1c0,0.3,0,0.4-0.2,0.5c0,0-0.2,0.1-0.4,0.1c-0.1,0-0.2,0-0.3,0c-0.6,0.1-0.7,0-0.9-0.3
			c-0.1-0.1-0.1-0.2-0.1-0.3c-0.3-0.9-0.5-2-0.6-3c-0.3-1.7-0.4-3.5-0.3-5.3c0-0.4,0-0.6,0.2-0.7c0.1-0.1,0.4-0.1,0.7-0.1
			c0.2,0,0.5,0,0.7,0c0.2,0,0.3,0,0.4,0.1s0,0.1,0,0.3c0,0.9,0.1,1.3,0.1,2.2c0,0.2,0,0.5,0,0.7c0,0,0.1,0,0.1,0
			C348,424.6,348.2,424.2,348.3,423.7z"/>
		<path d="M364,424.5c0.3,0.2,0.6,0.2,0.9,0.1c0.2-0.1,0.5-0.2,0.7-0.4c0.4-0.2,0.8-0.5,1.1-0.8c1-0.9,1.8-1.9,2.5-3
			c1.6-2.4,2.9-4.8,3.9-7.5c0.1-0.4,0.2-0.7,0.4-1.1c0-0.1,0.1-0.3,0.2-0.3c0.2-0.1,0.4-0.2,0.6-0.1c0,0,0,0,0,0
			c0,0,0.1,0.1,0.1,0.2c0,0.2-0.1,0.2-0.1,0.4c-0.7,2.6-1.8,5.1-3.2,7.5c-0.6,1.1-1.3,2.2-2.1,3.2c-0.5,0.6-1,1.1-1.6,1.6
			c-0.2,0.1-0.3,0.2-0.5,0.3c-0.2,0.1-0.5,0.2-0.7,0.3c-1,0.4-2.1,0.4-3,0.2c-0.7-0.1-1.3-0.5-1.6-1.1c-0.1-0.2-0.1-0.3-0.2-0.4
			c-1-2.2-1-4.5-0.2-7c0.3-1,0.8-1.9,1.6-2.7c0.1-0.1,0.2-0.2,0.3-0.3c0.3-0.2,0.6-0.2,0.9-0.3c0.4,0,0.9,0,1.4-0.1
			c0.4,0,0.6,0.1,0.7,0.3c0,0.1,0,0.1,0.1,0.2c0.4,1.4,0.2,2.9-0.5,4.3c-0.3,0.4-0.6,0.8-1,1c-0.4,0.2-0.9,0.4-1.4,0.4
			c-0.3,0.1-0.5,0.1-0.5,0.1c-0.1,0.1-0.1,0.2-0.1,0.6c0.1,0.9,0.2,1.7,0.5,2.6c0.1,0.3,0.2,0.5,0.3,0.7
			C363.5,424,363.7,424.3,364,424.5z M364.3,417.8c0.4-0.9,0.4-1.9,0.2-2.7c0-0.1,0-0.3-0.1-0.4c0,0-0.1,0-0.1,0c-0.1,0-0.1,0-0.1,0
			c-0.1,0.1-0.2,0.3-0.3,0.4c-0.9,1.2-1.2,2.5-1.4,3.8c0,0.2,0,0.3,0,0.3s0.2,0.1,0.5,0c0.1,0,0.1,0,0.1-0.1
			C363.8,418.7,364.1,418.3,364.3,417.8z"/>
		<path d="M375.9,411.3c-0.2-2-0.1-4,0.4-6.1c0.1-0.4,0.2-0.8,0.5-1.2c0.1-0.1,0.2-0.2,0.4-0.3c0.2-0.1,0.3-0.2,0.5-0.3
			c0.7-0.1,1.5-0.3,2.2-0.2c0.5,0.1,0.8,0,1.1-0.3c0.2-0.1,0.3-0.2,0.5-0.4c0.5-0.5,0.8-1.2,0.8-1.8c0-0.2,0-0.3,0.1-0.4
			c0,0,0.2-0.1,0.3-0.1c0.4,0,0.5-0.1,0.6,0c0.1,0.1,0.1,0.2,0.1,0.5c0,1-0.4,1.9-1.3,2.5c-0.1,0-0.1,0.1-0.1,0.1
			c-0.2,0.1-0.4,0.2-0.5,0.2c-0.6,0.1-1.2,0.2-1.8,0.3c-0.3,0-0.5,0-0.8,0c-0.2,0-0.3-0.1-0.4,0c-0.1,0.1-0.1,0.2-0.2,0.3
			c-0.4,0.5-0.5,1-0.6,1.5c-0.4,1.8-0.4,3.6-0.4,5.3c0,1.5,0.3,3.1,0.5,4.6c0,0.2,0,0.4,0,0.7c0,0.2,0,0.2-0.1,0.3
			c-0.1,0.1-0.2,0.1-0.3,0.1c-0.2,0.1-0.5,0.1-0.8,0.2c-0.4,0.1-0.6,0-0.8-0.3c-0.3-0.5-0.6-1-0.8-1.5c-0.9-2.1-1.6-4.3-2.1-6.6
			c-0.2-0.8-0.3-1.6-0.3-2.5c0-0.3,0-0.5,0.1-0.7c0-0.1,0.1-0.2,0.2-0.3c0,0,0.1-0.1,0.2-0.1c0.4,0,0.7-0.1,1.1-0.1
			c0.2,0,0.3,0,0.4,0.1c0.1,0.1,0.1,0.2,0,0.3c0,0.2,0,0.4,0,0.6c-0.1,0.4-0.1,0.9,0,1.3c0.3,1.9,0.8,3.6,1.4,5.3c0,0,0,0,0,0.1
			c0,0,0,0,0.1,0C375.9,412,375.9,411.7,375.9,411.3z"/>
	</g>
</g>
</svg>
